# ProBuilder 4.2.3
# https://unity3d.com/unity/features/worldbuilding/probuilder
# 8/18/2020 11:05:21 PM

mtllib ./Yut.mtl
o Yut

g Yut
v 0 0 0
v 0 2 0
v 0.01468304 0 0.0927051
v 0.01468304 2 0.0927051
v 0.05729491 0 0.1763356
v 0.05729491 2 0.1763356
v 0.1236644 0 0.2427051
v 0.1236644 2 0.2427051
v 0.2072949 0 0.285317
v 0.2072949 2 0.285317
v 0.3 0 0.3
v 0.3 2 0.3
v 0.3 0 -0.3
v 0.3 2 -0.3
v 0.2072949 0 -0.2853169
v 0.2072949 2 -0.2853169
v 0.1236645 0 -0.2427052
v 0.1236645 2 -0.2427052
v 0.05729492 0 -0.1763356
v 0.05729492 2 -0.1763356
v 0.01468304 0 -0.09270509
v 0.01468304 2 -0.09270509
v 0.3 0 0
v 0.3 2 0

vt 0 0
vt 0 2
vt 0.09386068 0
vt 0.09386068 2
vt 0.08926681 0
vt 0.08926681 2
vt 0.1831275 0
vt 0.1831275 2
vt 0.1652017 0
vt 0.1652017 2
vt 0.2590624 0
vt 0.2590624 2
vt 0.2203716 0
vt 0.2203716 2
vt 0.3142323 0
vt 0.3142323 2
vt 0.2493762 0
vt 0.2493762 2
vt 0.3432368 0
vt 0.3432368 2
vt -0.3432369 0
vt -0.3432369 2
vt -0.2493762 0
vt -0.2493762 2
vt -0.3142323 0
vt -0.3142323 2
vt -0.2203717 0
vt -0.2203717 2
vt -0.2590624 0
vt -0.2590624 2
vt -0.1652017 0
vt -0.1652017 2
vt -0.1831275 0
vt -0.1831275 2
vt -0.0892668 0
vt -0.0892668 2
vt -0.09386066 0
vt -0.09386066 2
vt 0.3 0
vt 0.01468304 0.0927051
vt -0.3 0
vt -0.01468304 0.0927051
vt 0.05729491 0.1763356
vt -0.05729491 0.1763356
vt 0.1236644 0.2427051
vt -0.1236644 0.2427051
vt 0.2072949 0.285317
vt -0.2072949 0.285317
vt 0.3 0.3
vt -0.3 0.3
vt 0.3 -0.3
vt 0.2072949 -0.2853169
vt -0.3 -0.3
vt -0.2072949 -0.2853169
vt 0.1236645 -0.2427052
vt -0.1236645 -0.2427052
vt 0.05729492 -0.1763356
vt -0.05729492 -0.1763356
vt 0.01468304 -0.09270509
vt -0.01468304 -0.09270509
vt -0.3 2
vt 0.3 2

vn -0.9876884 0 0.1564344
vn -0.8910065 0 0.4539906
vn -0.7071069 0 0.7071066
vn -0.4539905 0 0.8910065
vn -0.1564344 0 0.9876884
vn -0.1564346 0 -0.9876883
vn -0.4539903 0 -0.8910066
vn -0.7071067 0 -0.7071069
vn -0.8910065 0 -0.4539905
vn -0.9876884 0 -0.1564344
vn 0 -1 0
vn 0 1 0
vn 1 0 0

usemtl Default
f 1/1/11 23/39/11 3/40/11
f 3/40/11 23/39/11 5/43/11
f 5/43/11 23/39/11 7/45/11
f 7/45/11 23/39/11 9/47/11
f 9/47/11 23/39/11 11/49/11
f 13/51/11 23/39/11 15/52/11
f 15/52/11 23/39/11 17/55/11
f 17/55/11 23/39/11 19/57/11
f 19/57/11 23/39/11 21/59/11
f 21/59/11 23/39/11 1/1/11
f 4/42/12 24/41/12 2/1/12
f 6/44/12 24/41/12 4/42/12
f 8/46/12 24/41/12 6/44/12
f 10/48/12 24/41/12 8/46/12
f 12/50/12 24/41/12 10/48/12
f 16/54/12 24/41/12 14/53/12
f 18/56/12 24/41/12 16/54/12
f 20/58/12 24/41/12 18/56/12
f 22/60/12 24/41/12 20/58/12
f 2/1/12 24/41/12 22/60/12
f 24/2/13 23/1/13 14/62/13
f 11/41/13 23/1/13 24/2/13
f 12/61/13 11/41/13 24/2/13
f 23/1/13 13/39/13 14/62/13
f 4/4/1 2/2/1 1/1/1
f 1/1/1 3/3/1 4/4/1
f 6/8/2 4/6/2 3/5/2
f 3/5/2 5/7/2 6/8/2
f 8/12/3 6/10/3 5/9/3
f 5/9/3 7/11/3 8/12/3
f 10/16/4 8/14/4 7/13/4
f 7/13/4 9/15/4 10/16/4
f 12/20/5 10/18/5 9/17/5
f 9/17/5 11/19/5 12/20/5
f 16/24/6 14/22/6 13/21/6
f 13/21/6 15/23/6 16/24/6
f 18/28/7 16/26/7 15/25/7
f 15/25/7 17/27/7 18/28/7
f 20/32/8 18/30/8 17/29/8
f 17/29/8 19/31/8 20/32/8
f 22/36/9 20/34/9 19/33/9
f 19/33/9 21/35/9 22/36/9
f 2/2/10 22/38/10 21/37/10
f 21/37/10 1/1/10 2/2/10

